#!OML:ASF E:\emotionWalksFemale\Project 1\Capture day 1\Session 1\Female1.ASF
:FULLY-SPECIFIED
:DEGREES
659
root 8.83002 15.5567 -29.2834 -179.432 -1.76534 -179.52
lowerback 3.42016 2.26113 1.82705
upperback -4.49372 2.99121 -0.516063
thorax -6.46946 1.31931 -1.81936
lowerneck -4.58611 1.40716 -1.62355
upperneck -2.73743 1.79286 -1.59435
head -0.0856922 0.845943 -0.195969
rclavicle -9.41742e-015 -1.88845e-015
rhumerus -38.1342 4.10807 -86.2623
rradius 28.7304
rwrist 25.5649
rhand 2.67742 -55.7561
rfingers 7.12502
rthumb 28.1523 -83.6624
lclavicle -9.41742e-015 -1.88845e-015
lhumerus -43.7394 0.114528 85.3469
lradius 36.5017
lwrist -15.1845
lhand -4.93867 -34.7962
lfingers 7.12502
lthumb 20.8523 -5.8968
rfemur 1.00985 -2.59925 21.6211
rtibia 50.8293
rfoot 6.50756 -5.3037
rtoes 1.72887
lfemur -13.8591 -16.5046 -26.2694
ltibia 17.9323
lfoot -22.1467 31.0552
ltoes 42.8591
660
root 8.79995 15.5693 -29.3732 -179.4 -1.79425 -179.974
lowerback 3.48294 2.25405 1.37271
upperback -4.44568 2.95405 -0.547951
thorax -6.47681 1.32382 -1.59769
lowerneck -4.27256 1.77114 -0.971694
upperneck -3.22951 2.20283 -2.47681
head -0.265906 1.0418 -0.568711
rclavicle 1.73937e-016 6.36111e-015
rhumerus -38.2027 4.32524 -85.8953
rradius 28.7652
rwrist 25.6087
rhand 3.12839 -55.6477
rfingers 7.12502
rthumb 28.5832 -83.4823
lclavicle 1.73937e-016 6.36111e-015
lhumerus -43.3271 -0.25458 85.645
lradius 36.9343
lwrist -14.5341
lhand -5.14406 -34.6054
lfingers 7.12502
lthumb 20.655 -5.68445
rfemur -0.549742 -2.65995 20.7789
rtibia 53.3211
rfoot 7.10158 -4.54408
rtoes 0.0011969
lfemur -13.1173 -16.3505 -27.0078
ltibia 17.2327
lfoot -21.8528 31.0402
ltoes 42.3797
661
root 8.77485 15.5735 -29.4556 -179.344 -1.90291 -180.133
lowerback 3.56613 2.22411 1.18075
upperback -4.35183 2.91261 -0.484256
thorax -6.43939 1.31834 -1.42225
lowerneck -4.43724 2.10242 -0.496669
upperneck -3.38266 2.59303 -3.22485
head -0.265511 1.22285 -0.871794
rclavicle -1.06785e-014 2.5345e-015
rhumerus -38.1747 4.58193 -85.5206
rradius 28.8838
rwrist 25.4118
rhand 3.60513 -55.5624
rfingers 7.12502
rthumb 29.0386 -83.3195
lclavicle -1.06785e-014 2.5345e-015
lhumerus -42.7716 -0.493604 85.8772
lradius 37.33
lwrist -13.9869
lhand -5.48677 -34.9541
lfingers 7.12502
lthumb 20.3257 -5.99774
rfemur -2.11327 -2.77343 20.3555
rtibia 55.6485
rfoot 7.3249 -3.98049
rtoes -1.38678
lfemur -12.4865 -16.2211 -27.3831
ltibia 16.5734
lfoot -21.5946 30.8859
ltoes 42.0763
662
root 8.75213 15.5736 -29.5391 -179.358 -2.09892 -180.204
lowerback 3.71832 2.20226 1.09522
upperback -4.22746 2.89355 -0.401428
thorax -6.40438 1.32041 -1.29056
lowerneck -4.72028 2.45468 -0.153991
upperneck -3.46775 3.02207 -3.7994
head -0.224025 1.42254 -1.09956
rclavicle 2.51494e-014 3.72721e-016
rhumerus -38.1109 4.72465 -85.0885
rradius 28.9925
rwrist 25.1165
rhand 2.02035 -54.573
rfingers 7.12502
rthumb 27.524 -82.5811
lclavicle 2.51494e-014 3.72721e-016
lhumerus -42.167 -0.864136 86.1187
lradius 37.5663
lwrist -13.4604
lhand -5.7836 -35.5037
lfingers 7.12502
lthumb 20.0404 -6.5172
rfemur -3.4691 -2.91249 20.0855
rtibia 57.7851
rfoot 7.17713 -3.50154
rtoes -2.9066
lfemur -11.8266 -16.1652 -27.6778
ltibia 16.0026
lfoot -21.5008 30.5237
ltoes 42.2246
663
root 8.72868 15.5738 -29.6226 -179.439 -2.43023 -180.545
lowerback 3.84734 2.08434 0.704307
upperback -4.21138 2.71144 -0.413475
thorax -6.48416 1.24875 -1.07375
lowerneck -4.13543 2.93654 0.445777
upperneck -3.9425 3.59915 -4.44117
head -0.431166 1.7121 -1.40856
rclavicle -4.61724e-014 -3.22714e-015
rhumerus -38.2942 4.93237 -84.8526
rradius 28.9822
rwrist 24.9645
rhand 4.25679 -55.0851
rfingers 7.12502
rthumb 29.6608 -82.7332
lclavicle -4.61724e-014 -3.22714e-015
lhumerus -41.8005 -1.01895 86.1601
lradius 37.6075
lwrist -13.0094
lhand -6.11996 -35.8686
lfingers 7.12502
lthumb 19.717 -6.84855
rfemur -4.66488 -3.07524 19.5043
rtibia 59.7046
rfoot 6.57643 -3.23883
rtoes -4.53894
lfemur -11.201 -16.1684 -28.3208
ltibia 15.7168
lfoot -21.4228 30.1634
ltoes 42.4589
664
root 8.705 15.5748 -29.7016 -179.555 -2.75489 -180.816
lowerback 4.1714 1.9736 0.391399
upperback -4.23366 2.54599 -0.397374
thorax -6.71292 1.18124 -0.88037
lowerneck -3.66633 3.34042 1.25074
upperneck -4.29191 4.06449 -5.37975
head -0.568861 1.94062 -1.85463
rclavicle 1.89498e-014 -1.68967e-015
rhumerus -38.5272 5.04482 -84.5789
rradius 29.0407
rwrist 24.6644
rhand 4.43086 -55.0844
rfingers 7.12502
rthumb 29.827 -82.7029
lclavicle 1.89498e-014 -1.68967e-015
lhumerus -41.516 -1.14807 86.248
lradius 37.8296
lwrist -12.383
lhand -6.31427 -35.9492
lfingers 7.12502
lthumb 19.5302 -6.91014
rfemur -5.87224 -3.13796 19.0384
rtibia 61.4545
rfoot 6.01042 -3.29704
rtoes -4.01912
lfemur -10.5942 -16.1379 -28.8895
ltibia 15.48
lfoot -20.9486 30.1867
ltoes 41.7548
